<svg width="34" height="34" viewBox="0 0 34 34" fill="none" xmlns="http://www.w3.org/2000/svg">
<path d="M15.7954 3.17603C15.4284 3.17603 15.0614 3.26072 14.7085 3.38776L4.31936 7.69303C3.62877 7.97583 3.07875 8.5213 2.79023 9.20952C2.50171 9.89774 2.4983 10.6724 2.78076 11.3631L9.78212 28.2313C9.98892 28.7429 10.3411 29.1827 10.7952 29.4963C11.2493 29.8099 11.7853 29.9835 12.337 29.9958C12.7041 29.9958 13.0852 29.9534 13.4522 29.784L23.8554 25.4787C24.3575 25.2657 24.788 24.913 25.0957 24.4627C25.4035 24.0123 25.5756 23.4831 25.5916 22.9379C25.6058 22.585 25.5352 22.1757 25.4081 21.8087L18.3503 4.94048C18.1508 4.42388 17.8004 3.97929 17.3447 3.66459C16.889 3.34989 16.3492 3.17965 15.7954 3.17603ZM20.7076 3.17603L25.5775 14.9626V5.99915C25.5775 5.25041 25.2801 4.53234 24.7506 4.0029C24.2212 3.47346 23.5031 3.17603 22.7544 3.17603M28.4148 5.34983V18.0963L31.8449 9.82449C31.9855 9.48257 32.0572 9.11624 32.056 8.74652C32.0547 8.37681 31.9805 8.01098 31.8376 7.67001C31.6946 7.32904 31.4858 7.01965 31.223 6.75957C30.9602 6.49949 30.6487 6.29385 30.3063 6.15443M15.7954 5.95681L22.825 22.9238L12.3935 27.2432L5.36392 10.2903" fill="#ABABAB"/>
</svg>
