<svg width="34" height="34" viewBox="0 0 34 34" fill="none" xmlns="http://www.w3.org/2000/svg">
<path d="M2.82312 16.9388C2.82312 10.2847 2.82312 6.95761 4.88965 4.88967C6.959 2.82314 10.2847 2.82314 16.9388 2.82314C23.5929 2.82314 26.9199 2.82314 28.9865 4.88967C31.0544 6.95902 31.0544 10.2847 31.0544 16.9388C31.0544 23.5929 31.0544 26.92 28.9865 28.9865C26.9214 31.0544 23.5929 31.0544 16.9388 31.0544C10.2847 31.0544 6.95759 31.0544 4.88965 28.9865C2.82312 26.9214 2.82312 23.5929 2.82312 16.9388Z" stroke="#673AB7" stroke-width="3"/>
<path d="M14.2921 12.5276C14.2922 12.0641 14.414 11.6088 14.6453 11.2071C14.8766 10.8055 15.2093 10.4716 15.6102 10.2389C16.0111 10.0063 16.466 9.88295 16.9295 9.88133C17.393 9.8797 17.8488 9.99983 18.2513 10.2297C18.6538 10.4595 18.9889 10.7911 19.223 11.1911C19.4571 11.5911 19.5821 12.0456 19.5854 12.5091C19.5887 12.9726 19.4703 13.4288 19.2419 13.8321C19.0135 14.2355 18.6832 14.5717 18.284 14.8073C17.6135 15.204 16.9388 15.8067 16.9388 16.5859V18.3503" stroke="#673AB7" stroke-width="3" stroke-linecap="round"/>
<path d="M16.9388 23.9966C17.7184 23.9966 18.3504 23.3646 18.3504 22.585C18.3504 21.8055 17.7184 21.1735 16.9388 21.1735C16.1592 21.1735 15.5272 21.8055 15.5272 22.585C15.5272 23.3646 16.1592 23.9966 16.9388 23.9966Z" fill="#673AB7"/>
</svg>
